<svg xmlns="http://www.w3.org/2000/svg" viewBox="0 0 24 24" fill="black" aria-hidden="true"><path d="M12.166 2.002c-3.144.099-5.518 2.566-5.527 5.713l-.014 1.81c-.346-.131-.696-.225-1.04-.225-.41 0-.812.116-1.16.36-.39.276-.581.673-.484 1.072.099.408.453.69.83.864.5.231 1.058.473 1.485.79.084.062.143.146.196.235-.337 1.084-.94 2.083-1.92 2.96-.518.464-1.171.78-1.83 1.025-.358.133-.527.394-.474.646.064.302.346.493.71.59.276.073.563.107.852.118.024.097.064.282.122.508.072.281.262.527.526.65.31.144.692.124 1.046.06.488-.088.974-.226 1.474-.13.514.097.956.443 1.418.79.722.546 1.61 1.07 2.616 1.07.024 0 .048 0 .073-.001 1.038-.013 1.92-.534 2.628-1.069.461-.347.903-.693 1.418-.79.5-.096.985.043 1.473.13.355.064.737.084 1.046-.06.265-.123.455-.369.527-.65.058-.226.097-.41.121-.508.29-.011.576-.045.853-.118.364-.097.646-.288.71-.59.052-.252-.117-.513-.475-.646-.659-.244-1.312-.561-1.83-1.025-.98-.877-1.583-1.876-1.92-2.96.053-.089.112-.173.196-.235.427-.317.985-.559 1.485-.79.377-.174.731-.456.83-.864.097-.4-.094-.796-.485-1.072-.347-.244-.749-.36-1.16-.36-.343 0-.692.094-1.039.225l-.013-1.81c-.01-3.147-2.384-5.614-5.527-5.713zM12 4.502c2.18 0 3.999 1.797 3.999 4.013v2.21c0 .42.328.762.75.762a.748.748 0 0 0 .727-.567c.024-.099.108-.158.214-.158.045 0 .09.01.135.029-.124.085-.398.231-.605.32-.586.252-1.252.585-1.252 1.299 0 .145.025.291.077.439.357 1.014 1.039 1.998 1.948 2.838.16.149.337.276.518.395-.205.046-.413.082-.62.106-.221.027-.396.197-.42.418-.005.058-.025.16-.05.27-.114-.013-.227-.034-.34-.057-.49-.087-.999-.176-1.527-.075-.717.137-1.295.55-1.838.96-.62.467-1.205.91-1.864.918-.658-.008-1.244-.451-1.864-.918-.543-.41-1.121-.823-1.838-.96-.527-.1-1.036-.012-1.526.075-.114.023-.227.044-.34.058-.026-.111-.046-.213-.05-.271-.025-.221-.2-.39-.42-.418a8.05 8.05 0 0 1-.622-.106c.181-.119.358-.246.518-.395.91-.84 1.591-1.824 1.948-2.838a1.4 1.4 0 0 0 .078-.439c0-.714-.667-1.047-1.252-1.299-.207-.089-.482-.235-.605-.32a.376.376 0 0 1 .135-.029c.106 0 .19.06.214.158a.748.748 0 0 0 .727.567.756.756 0 0 0 .749-.762v-2.21c0-2.216 1.82-4.013 4-4.013z"/></svg>
